<?xml version="1.0" standalone="no"?>
<!DOCTYPE svg PUBLIC "-//W3C//DTD SVG 20010904//EN"
 "http://www.w3.org/TR/2001/REC-SVG-20010904/DTD/svg10.dtd">
<svg version="1.0" xmlns="http://www.w3.org/2000/svg"
 width="6912.000000pt" height="3456.000000pt" viewBox="0 0 6912.000000 3456.000000"
 preserveAspectRatio="xMidYMid meet">

<g transform="translate(0.000000,3456.000000) scale(0.100000,-0.100000)"
fill="#000000" stroke="none">
<path d="M14484 22491 c-445 -71 -790 -535 -998 -1343 -38 -147 -73 -307 -97
-438 -81 -446 -129 -1009 -129 -1510 0 -547 38 -968 129 -1422 11 -55 11 -58
-37 -180 -165 -413 -257 -836 -281 -1284 l-8 -151 -82 -94 c-142 -163 -284
-393 -336 -544 -39 -116 -48 -162 -48 -275 -1 -129 14 -191 64 -279 44 -76
192 -225 310 -312 78 -58 99 -78 96 -94 -3 -11 -16 -65 -30 -120 -55 -216 -57
-402 -5 -558 71 -217 337 -530 648 -764 73 -55 295 -198 395 -255 82 -47 305
-160 385 -196 25 -11 65 -29 90 -40 180 -81 544 -209 775 -273 22 -6 51 -15
65 -20 33 -11 335 -83 430 -103 638 -132 1347 -192 1985 -167 171 7 353 16
405 21 52 5 147 14 210 20 63 6 147 15 185 21 249 34 259 35 445 69 258 47
518 109 775 185 179 53 503 167 618 219 18 8 52 22 77 33 87 36 380 183 487
244 466 268 825 603 980 914 92 184 102 393 31 670 l-31 119 24 16 c121 79
305 248 363 333 20 29 47 84 62 122 24 62 27 84 27 190 0 100 -5 135 -26 210
-52 178 -188 414 -341 593 -107 125 -102 113 -109 280 -19 425 -120 873 -296
1316 -33 80 -33 85 -11 181 46 207 92 596 110 940 32 611 -15 1373 -120 1943
-6 28 -14 73 -19 100 -34 186 -95 422 -156 607 -196 589 -466 939 -810 1048
-280 89 -596 5 -890 -236 -296 -243 -576 -608 -867 -1132 -52 -93 -237 -470
-278 -565 -18 -41 -42 -97 -55 -125 -12 -27 -35 -83 -50 -122 -15 -40 -32 -73
-37 -73 -4 0 -34 20 -65 44 -62 48 -162 86 -224 86 -53 0 -131 -17 -220 -47
l-76 -27 -59 47 c-206 162 -466 162 -669 -1 l-49 -39 -56 19 c-147 51 -262 59
-360 27 -59 -19 -150 -72 -158 -91 -6 -14 -42 -9 -42 6 0 13 -86 218 -171 406
-132 293 -354 692 -517 930 -359 521 -695 813 -1042 904 -75 20 -242 29 -316
17z m341 -1202 c92 -40 230 -157 345 -294 46 -55 178 -245 219 -318 10 -18 44
-75 74 -128 47 -80 191 -368 250 -499 44 -98 157 -388 157 -403 0 -10 -12 -22
-27 -27 -16 -6 -36 -15 -45 -20 -10 -6 -22 -10 -27 -10 -17 0 -252 -100 -376
-161 -221 -107 -374 -200 -575 -349 -103 -76 -100 -73 -229 -186 -123 -107
-273 -262 -392 -406 -39 -48 -75 -85 -79 -83 -45 28 -68 905 -35 1305 28 331
47 479 91 705 100 507 252 810 441 881 45 17 162 13 208 -7z m5654 -10 c128
-70 252 -279 331 -559 7 -25 16 -56 21 -70 12 -37 56 -242 73 -345 60 -353 86
-692 86 -1152 0 -398 -22 -731 -49 -748 -5 -2 -46 42 -93 98 -307 367 -707
686 -1133 904 -106 54 -458 203 -480 203 -7 0 -22 8 -33 18 l-21 17 40 100
c38 96 94 230 127 305 38 88 234 481 266 534 20 32 36 62 36 67 0 5 5 9 10 9
6 0 10 5 10 10 0 12 95 159 155 240 153 208 326 358 450 391 55 15 156 3 204
-22z m-2905 -2208 c32 -28 79 -142 106 -261 22 -93 38 -172 49 -240 7 -41 16
-100 21 -130 5 -30 14 -93 19 -140 6 -47 15 -123 20 -170 25 -214 44 -471 61
-809 12 -247 13 -898 2 -905 -5 -3 -58 4 -118 14 -130 24 -291 25 -423 5 -52
-8 -98 -12 -101 -10 -32 20 -4 1077 40 1520 25 247 61 527 80 625 5 25 14 74
21 110 38 208 92 358 144 398 28 22 47 20 79 -7z m-1564 -1175 c150 -33 294
-94 432 -185 184 -120 329 -284 368 -418 21 -69 6 -131 -44 -178 -52 -50 -99
-65 -210 -65 -169 0 -421 94 -606 226 -140 100 -294 279 -320 372 -36 129 7
207 140 255 30 11 177 7 240 -7z m3291 2 c159 -54 182 -189 63 -370 -115 -173
-412 -380 -629 -439 -117 -31 -160 -38 -234 -39 -100 0 -147 13 -197 53 -93
77 -83 192 30 349 138 194 442 385 706 443 72 16 218 18 261 3z m-3327 -743
c101 -27 204 -86 293 -168 45 -41 133 -167 133 -190 0 -7 4 -17 9 -22 43 -48
65 -294 37 -408 -41 -165 -132 -298 -265 -389 -139 -95 -256 -128 -431 -123
-52 1 -86 0 -75 -2 11 -3 22 -8 25 -12 3 -3 57 -32 120 -63 120 -60 275 -150
311 -181 11 -10 24 -17 29 -15 5 2 35 28 67 58 242 229 587 442 848 524 273
87 546 91 820 14 288 -81 594 -253 880 -493 141 -118 129 -111 153 -89 39 36
330 201 398 226 19 6 34 16 34 20 0 4 8 8 17 8 11 0 14 3 7 10 -5 5 -24 6 -49
0 -123 -29 -318 19 -451 111 -180 124 -285 324 -287 549 -2 289 201 554 486
634 272 77 571 -37 731 -279 114 -170 137 -431 56 -610 -11 -24 -20 -46 -20
-49 0 -3 -18 -32 -40 -63 -46 -67 -123 -148 -162 -171 -27 -16 -37 -32 -20
-32 5 0 35 9 68 19 180 58 320 80 509 80 494 1 874 -175 1092 -504 68 -103
127 -242 156 -365 36 -154 41 -201 42 -375 0 -161 -3 -189 -24 -265 -84 -297
-270 -583 -564 -867 -274 -264 -620 -480 -936 -583 -67 -22 -126 -40 -131 -40
-5 0 -69 -40 -142 -89 -369 -246 -770 -408 -1243 -501 -146 -29 -181 -34 -390
-60 -338 -41 -849 -32 -1210 21 -139 21 -329 57 -415 79 -421 111 -743 249
-1050 451 -83 54 -157 99 -163 99 -28 0 -217 65 -317 108 -100 43 -122 54
-205 102 -19 11 -52 29 -72 41 -95 53 -265 178 -373 273 -367 323 -583 639
-681 1001 -21 75 -17 394 5 510 104 531 444 858 986 946 112 18 463 19 545 1
133 -29 193 -44 253 -64 61 -19 97 -17 57 4 -48 25 -176 170 -210 239 -132
261 -87 564 112 765 94 95 183 147 308 180 74 20 106 24 185 20 52 -3 122 -12
154 -21z"/>
<path d="M15685 17040 c-187 -38 -366 -217 -406 -407 -25 -122 3 -302 60 -382
12 -16 21 -32 21 -35 0 -8 46 -60 84 -96 38 -37 121 -86 187 -112 79 -31 260
-30 342 1 88 34 140 67 197 123 129 127 180 272 159 455 -24 215 -207 413
-420 453 -60 12 -166 11 -224 0z"/>
<path d="M19123 17035 c-174 -49 -311 -176 -370 -346 -35 -101 -37 -254 -3
-344 64 -169 180 -280 355 -341 88 -31 308 -20 349 17 6 5 16 9 24 9 17 0 117
69 160 110 48 46 122 166 122 198 0 10 6 24 12 30 18 18 17 256 -1 302 -23 60
-53 125 -60 130 -3 3 -19 23 -36 45 -37 51 -41 54 -98 98 -47 36 -73 50 -152
82 -57 23 -235 29 -302 10z"/>
<path d="M17227 16039 c-132 -19 -270 -121 -327 -241 -41 -86 -45 -139 -20
-220 48 -156 269 -376 488 -488 l62 -31 0 -160 0 -159 -27 -10 c-60 -22 -115
-55 -199 -121 -130 -100 -211 -153 -279 -180 -51 -20 -77 -24 -170 -24 -106 0
-113 1 -179 35 -131 66 -252 187 -385 383 -106 157 -101 147 -90 193 20 78
-45 166 -134 181 -49 8 -118 -28 -145 -76 -48 -85 -18 -174 72 -221 41 -21 50
-32 62 -70 75 -234 345 -520 574 -607 100 -38 145 -46 247 -40 186 10 234 21
323 73 14 9 33 18 43 21 9 3 17 9 17 14 0 5 5 9 11 9 6 0 16 6 23 13 7 6 25
21 40 32 28 20 136 104 167 129 14 11 17 2 27 -83 7 -53 12 -118 12 -145 0
-57 18 -179 52 -343 22 -109 48 -125 66 -40 47 218 60 309 68 485 4 73 11 135
15 138 5 3 9 2 9 -3 0 -4 17 -19 38 -33 20 -14 42 -29 48 -35 6 -5 28 -23 49
-40 21 -16 44 -36 51 -42 7 -7 15 -13 19 -13 3 0 32 -17 63 -38 111 -74 221
-102 397 -102 234 1 479 159 674 435 61 85 89 140 116 223 12 35 23 52 34 52
9 0 31 9 49 20 113 69 90 235 -40 281 -101 35 -224 -83 -189 -184 12 -34 16
-26 -93 -186 -136 -200 -251 -314 -382 -381 -66 -34 -73 -35 -179 -35 -69 0
-123 5 -145 14 -81 31 -148 71 -242 144 -130 101 -170 127 -232 153 l-51 20
-3 161 -2 162 77 40 c236 124 452 357 483 523 27 140 -82 317 -240 392 -59 28
-74 31 -166 31 -96 0 -103 -2 -176 -37 -87 -44 -91 -44 -126 -20 -15 10 -36
22 -47 26 -28 11 -128 35 -140 34 -5 0 -36 -4 -68 -9z"/>
</g>
</svg>
